<svg width="12" height="12" viewBox="0 0 12 12" xmlns="http://www.w3.org/2000/svg"><g fill="none" fill-rule="evenodd"><path d="M-1-1h14v14H-1z"/><path d="M6.611.544l1.275 2.564a.68.68 0 0 0 .513.37l2.85.412c.559.08.782.762.378 1.154L9.564 7.04a.673.673 0 0 0-.196.599l.487 2.819a.68.68 0 0 1-.988.713l-2.55-1.33a.684.684 0 0 0-.634 0l-2.55 1.33c-.5.26-1.084-.161-.988-.713l.486-2.82a.671.671 0 0 0-.196-.598L.373 5.044A.675.675 0 0 1 .751 3.89l2.85-.411a.68.68 0 0 0 .513-.37L5.39.543a.684.684 0 0 1 1.222 0" fill="#FFC400"/></g></svg>